<svg aria-hidden="true" style="position: absolute; width: 0; height: 0; overflow: hidden;" version="1.1" xmlns="http://www.w3.org/2000/svg" xmlns:xlink="http://www.w3.org/1999/xlink">
<defs>
<symbol id="icon-btn-close" viewBox="0 0 32 32">
<path d="M21.589 8.459l-5.657 5.656-5.656-5.656-1.885 1.885 5.656 5.656-5.656 5.656 1.885 1.885 5.656-5.656 5.657 5.656 1.885-1.885-5.656-5.656 5.656-5.656-1.885-1.885z"></path>
</symbol>
<symbol id="icon-burger" viewBox="0 0 32 32">
<path d="M5.333 8h21.333v2.667h-21.333v-2.667zM5.333 14.667h21.333v2.667h-21.333v-2.667zM5.333 21.333h21.333v2.667h-21.333v-2.667z"></path>
</symbol>
<symbol id="icon-Favicon" viewBox="0 0 32 32">
<path fill="#75d281" style="fill: var(--color1, #75d281)" d="M0 0h32v32h-32v-32z"></path>
<path fill="#030a06" style="fill: var(--color2, #030a06)" d="M15.511 3c-0.128 0-0.263 0-0.389 0.015-1.469 0.123-2.82 0.747-3.781 1.884-1.046 1.237-1.3 2.541-1.287 4.117l-2.799-0.004c-0.125-0-0.255-0.004-0.386-0.007-0.365-0.010-0.745-0.021-1.087 0.042-0.206 0.038-0.386 0.138-0.532 0.289-0.254 0.264-0.26 0.599-0.244 0.941 0.026 0.54 0.072 1.080 0.119 1.62 0.025 0.294 0.050 0.587 0.072 0.88l0.465 6.004 0.226 2.899c0.011 0.143 0.020 0.288 0.029 0.433 0.032 0.519 0.064 1.045 0.201 1.542 0.237 0.844 0.706 1.605 1.354 2.195 0.566 0.514 1.251 0.881 1.993 1.068 0.627 0.151 1.357 0.134 2.041 0.118 0.204-0.005 0.404-0.009 0.596-0.010l7.060 0c0.18 0 0.365 0.004 0.552 0.009 0.608 0.014 1.242 0.029 1.81-0.103 0.799-0.186 1.608-0.625 2.192-1.203 0.543-0.539 0.977-1.258 1.166-2.001 0.145-0.568 0.181-1.192 0.217-1.797 0.011-0.195 0.023-0.388 0.037-0.577l0.309-3.976 0.385-4.882c0.019-0.241 0.043-0.485 0.067-0.729 0.052-0.529 0.105-1.063 0.104-1.586-0.001-0.322-0.069-0.622-0.299-0.861-0.159-0.165-0.418-0.245-0.638-0.281-0.329-0.054-0.69-0.044-1.039-0.035-0.129 0.003-0.256 0.007-0.38 0.007-0.88-0.002-1.761 0.001-2.642 0.009l-0.038 0.001c0.021-1.687-0.355-3.135-1.568-4.369-1.014-1.050-2.408-1.646-3.867-1.652l-0.018 0zM20.847 12.623l0.047 0.003c0.001 0.003 0.003 0.006 0.004 0.009 0.001 0.001 0.001 0.003 0.002 0.004 0.002 0.005 0.004 0.009 0.006 0.013l0.002 0.005c0.009 0.020 0.010 0.023 0.010 0.055-0.015 2.069-0.569 4.732-2.037 6.247-1.36 1.403-3.471 2.091-5.396 2.13 0.897-1.687 2.338-3.287 3.825-4.475 0.23-0.184 0.471-0.35 0.711-0.516 0.155-0.107 0.31-0.214 0.462-0.326 0.148-0.109 0.347-0.256 0.368-0.454 0.019-0.182-0.078-0.324-0.192-0.454-0.16-0.093-0.277-0.131-0.459-0.078-0.259 0.076-0.52 0.268-0.756 0.441-0.062 0.046-0.123 0.090-0.181 0.131-1.906 1.35-3.49 3.104-4.638 5.138-0.039-1.655 0.338-3.041 1.353-4.372 1.523-1.997 4.438-3.171 6.871-3.503zM6.050 10.048l18.911-0c-0.067 0.637-0.111 1.28-0.154 1.921-0.024 0.357-0.048 0.715-0.077 1.071l-0.509 6.381-0.191 2.351c-0.008 0.102-0.016 0.205-0.024 0.308-0.031 0.406-0.061 0.815-0.14 1.212-0.080 0.408-0.236 0.762-0.448 1.117-0.081 0.124-0.17 0.243-0.265 0.357-0.548 0.655-1.448 1.143-2.303 1.208-0.465 0.035-0.944 0.026-1.419 0.018-0.205-0.004-0.41-0.008-0.612-0.008l-7.046 0c-0.151 0-0.304 0.003-0.458 0.006-0.474 0.010-0.958 0.020-1.413-0.058-0.597-0.104-1.155-0.367-1.615-0.761-0.551-0.465-0.946-1.087-1.133-1.783-0.128-0.462-0.159-0.953-0.191-1.436-0.008-0.121-0.016-0.242-0.025-0.361l-0.186-2.393-0.704-9.15zM21.267 11.515l-0.014 0.002c-2.871 0.332-6.139 1.513-7.994 3.838-1.193 1.494-1.844 3.439-1.629 5.353 0.047 0.42 0.143 0.822 0.28 1.222-0.015 0.040-0.034 0.087-0.056 0.142-0.236 0.592-0.783 1.968-0.593 2.375 0.055 0.118 0.167 0.197 0.289 0.235 0.050 0.016 0.101 0.025 0.153 0.031 0.161-0.026 0.309-0.060 0.406-0.203 0.104-0.155 0.21-0.526 0.301-0.844 0.043-0.151 0.083-0.291 0.118-0.389 0.118-0.335 0.252-0.665 0.386-0.994l0.002-0.004c0.016-0.039 0.031-0.077 0.047-0.116 2.367 0.007 4.896-0.734 6.608-2.424 1.915-1.89 2.398-4.938 2.401-7.517 0-0.203-0.014-0.445-0.163-0.6-0.091-0.096-0.229-0.124-0.357-0.122-0.062 0.001-0.123 0.008-0.185 0.014zM15.281 4.034c0.092-0.006 0.184-0.011 0.275-0.010 1.124 0.008 2.25 0.511 3.040 1.303 1.076 1.079 1.296 2.224 1.298 3.689l-8.755 0.004c-0.036-1.259 0.167-2.409 0.993-3.403 0.793-0.955 1.926-1.473 3.148-1.582z"></path>
</symbol>
<symbol id="icon-Instagram" viewBox="0 0 32 32">
<path fill-rule="evenodd" d="M21.435 4.864h-10.24c-3.535 0-6.4 2.865-6.4 6.4v10.24c0 3.535 2.865 6.4 6.4 6.4h10.24c3.535 0 6.4-2.865 6.4-6.4v-10.24c0-3.535-2.865-6.4-6.4-6.4zM25.595 21.504c-0.007 2.295-1.865 4.153-4.16 4.16h-10.24c-2.295-0.007-4.153-1.865-4.16-4.16v-10.24c0.007-2.295 1.865-4.153 4.16-4.16h10.24c2.295 0.007 4.153 1.865 4.16 4.16v10.24zM22.395 11.584c0.707 0 1.28-0.573 1.28-1.28s-0.573-1.28-1.28-1.28c-0.707 0-1.28 0.573-1.28 1.28s0.573 1.28 1.28 1.28zM16.315 10.624c-3.181 0-5.76 2.579-5.76 5.76s2.579 5.76 5.76 5.76c3.181 0 5.76-2.579 5.76-5.76 0.003-1.529-0.602-2.996-1.683-4.077s-2.548-1.687-4.077-1.683zM12.795 16.384c0 1.944 1.576 3.52 3.52 3.52s3.52-1.576 3.52-3.52c0-1.944-1.576-3.52-3.52-3.52s-3.52 1.576-3.52 3.52z"></path>
</symbol>
<symbol id="icon-LinkedIn" viewBox="0 0 32 32">
<path fill-rule="evenodd" d="M6.715 4.864c-1.060 0-1.92 0.86-1.92 1.92v19.2c0 1.060 0.86 1.92 1.92 1.92h19.2c1.060 0 1.92-0.86 1.92-1.92v-19.2c0-1.060-0.86-1.92-1.92-1.92h-19.2zM11.862 9.988c0.007 1.224-0.909 1.978-1.996 1.973-1.024-0.005-1.917-0.821-1.912-1.971 0.005-1.082 0.86-1.951 1.971-1.926 1.127 0.025 1.944 0.851 1.937 1.924zM16.673 13.52h-3.227v10.957h3.409v-0.256c0-0.486-0-0.973-0.001-1.459-0.001-1.298-0.002-2.597 0.004-3.894 0.002-0.315 0.016-0.643 0.097-0.943 0.304-1.123 1.314-1.849 2.441-1.67 0.724 0.113 1.202 0.533 1.404 1.215 0.124 0.427 0.18 0.886 0.185 1.33 0.015 1.341 0.013 2.682 0.011 4.023-0.001 0.473-0.002 0.947-0.002 1.42v0.232h3.42v-0.263c0-0.579-0-1.157-0.001-1.735-0.001-1.446-0.001-2.892 0.002-4.338 0.002-0.653-0.068-1.298-0.229-1.93-0.239-0.94-0.734-1.717-1.539-2.279-0.571-0.4-1.197-0.657-1.897-0.686-0.080-0.003-0.16-0.008-0.241-0.012-0.358-0.019-0.722-0.039-1.064 0.030-0.979 0.196-1.84 0.644-2.489 1.434-0.076 0.091-0.149 0.183-0.26 0.32l-0.025 0.031v-1.528zM8.227 24.48h3.393v-10.953h-3.393v10.953z"></path>
</symbol>
<symbol id="icon-star-black" viewBox="0 0 32 32">
<path d="M14.959 2.16c0.524-1.244 2.308-1.244 2.832 0l3.091 7.343c0.221 0.524 0.72 0.883 1.293 0.928l8.024 0.636c1.36 0.108 1.911 1.784 0.875 2.66l-6.114 5.174c-0.437 0.37-0.628 0.95-0.494 1.502l1.868 7.736c0.316 1.311-1.127 2.347-2.291 1.644l-6.87-4.146c-0.491-0.296-1.108-0.296-1.599 0l-6.87 4.146c-1.164 0.702-2.607-0.334-2.291-1.644l1.868-7.736c0.133-0.552-0.057-1.132-0.494-1.502l-6.114-5.174c-1.036-0.877-0.485-2.553 0.875-2.66l8.024-0.636c0.573-0.045 1.072-0.404 1.293-0.928l3.092-7.343z"></path>
</symbol>
<symbol id="icon-star-green" viewBox="0 0 32 32">
<path fill="#75d281" style="fill: var(--color1, #75d281)" d="M14.959 2.16c0.524-1.244 2.308-1.244 2.832 0l3.091 7.343c0.221 0.524 0.72 0.883 1.293 0.928l8.024 0.636c1.36 0.108 1.911 1.784 0.875 2.66l-6.114 5.174c-0.437 0.37-0.628 0.95-0.494 1.502l1.868 7.736c0.316 1.311-1.127 2.347-2.291 1.644l-6.87-4.146c-0.491-0.296-1.108-0.296-1.599 0l-6.87 4.146c-1.164 0.702-2.607-0.334-2.291-1.644l1.868-7.736c0.133-0.552-0.057-1.132-0.494-1.502l-6.114-5.174c-1.036-0.877-0.485-2.553 0.875-2.66l8.024-0.636c0.573-0.045 1.072-0.404 1.293-0.928l3.092-7.343z"></path>
</symbol>
<symbol id="icon-Youtube" viewBox="0 0 32 32">
<path d="M28.594 9.934c-0.146-0.541-0.431-1.034-0.826-1.431s-0.888-0.683-1.429-0.83c-2.004-0.55-10.024-0.559-10.024-0.559s-8.018-0.009-10.024 0.517c-0.54 0.154-1.032 0.444-1.428 0.842s-0.683 0.892-0.833 1.433c-0.529 2.004-0.534 6.162-0.534 6.162s-0.005 4.178 0.52 6.162c0.294 1.097 1.158 1.964 2.257 2.259 2.025 0.55 10.022 0.559 10.022 0.559s8.019 0.009 10.024-0.516c0.541-0.147 1.034-0.432 1.431-0.828s0.683-0.888 0.831-1.429c0.53-2.003 0.534-6.159 0.534-6.159s0.026-4.179-0.521-6.184zM13.75 19.92l0.006-7.68 6.665 3.846-6.671 3.834z"></path>
</symbol>
</defs>
</svg>
