<svg viewBox="0 0 32 32" xmlns="http://www.w3.org/2000/svg">
  <path fill="
#75d281" d="M0 0h32v32h-32v-32z"/>
  <path fill="
#030a06" d="M15.511 3c-0.128 0-0.263 0-0.389 0.015-1.469 0.123-2.82 0.747-3.781 1.884-1.046 1.237-1.3 2.541-1.287 4.117l-2.799-0.004c-0.125-0-0.255-0.004-0.386-0.007-0.365-0.010-0.745-0.021-1.087 0.042-0.206 0.038-0.386 0.138-0.532 0.289-0.254 0.264-0.26 0.599-0.244 0.941 0.026 0.54 0.072 1.080 0.119 1.62 0.025 0.294 0.050 0.587 0.072 0.88l0.465 6.004 0.226 2.899c0.011 0.143 0.020 0.288 0.029 0.433 0.032 0.519 0.064 1.045 0.201 1.542 0.237 0.844 0.706 1.605 1.354 2.195 0.566 0.514 1.251 0.881 1.993 1.068 0.627 0.151 1.357 0.134 2.041 0.118 0.204-0.005 0.404-0.009 0.596-0.010l7.060 0c0.180 0 0.365 0.004 0.552 0.009 0.608 0.014 1.242 0.029 1.81-0.103 0.799-0.186 1.608-0.625 2.192-1.203 0.543-0.539 0.977-1.258 1.166-2.001 0.145-0.568 0.181-1.192 0.217-1.797 0.011-0.195 0.023-0.388 0.037-0.577l0.309-3.976 0.385-4.882c0.019-0.241 0.043-0.485 0.067-0.729 0.052-0.529 0.105-1.063 0.104-1.586-0.001-0.322-0.069-0.622-0.299-0.861-0.159-0.165-0.418-0.245-0.638-0.281-0.329-0.054-0.69-0.044-1.039-0.035-0.129 0.003-0.256 0.007-0.38 0.007-0.88-0.002-1.761 0.001-2.642 0.009l-0.038 0.001c0.021-1.687-0.355-3.135-1.568-4.369-1.014-1.050-2.408-1.646-3.867-1.652l-0.018 0zM20.847 12.623l0.047 0.003c0.001 0.003 0.003 0.006 0.004 0.009 0.001 0.001 0.001 0.003 0.002 0.004 0.002 0.005 0.004 0.009 0.006 0.013l0.002 0.005c0.009 0.020 0.010 0.023 0.010 0.055-0.015 2.069-0.569 4.732-2.037 6.247-1.36 1.403-3.471 2.091-5.396 2.13 0.897-1.687 2.338-3.287 3.825-4.475 0.23-0.184 0.471-0.35 0.711-0.516 0.155-0.107 0.31-0.214 0.462-0.326 0.148-0.109 0.347-0.256 0.368-0.454 0.019-0.182-0.078-0.324-0.192-0.454-0.16-0.093-0.277-0.131-0.459-0.078-0.259 0.076-0.52 0.268-0.756 0.441-0.062 0.046-0.123 0.090-0.181 0.131-1.906 1.35-3.49 3.104-4.638 5.138-0.039-1.655 0.338-3.041 1.353-4.372 1.523-1.997 4.438-3.171 6.871-3.503zM6.050 10.048l18.911-0c-0.067 0.637-0.111 1.28-0.154 1.921-0.024 0.357-0.048 0.715-0.077 1.071l-0.509 6.381-0.191 2.351c-0.008 0.102-0.016 0.205-0.024 0.308-0.031 0.406-0.061 0.815-0.14 1.212-0.080 0.408-0.236 0.762-0.448 1.117-0.081 0.124-0.17 0.243-0.265 0.357-0.548 0.655-1.448 1.143-2.303 1.208-0.465 0.035-0.944 0.026-1.419 0.018-0.205-0.004-0.41-0.008-0.612-0.008l-7.046 0c-0.151 0-0.304 0.003-0.458 0.006-0.474 0.010-0.958 0.020-1.413-0.058-0.597-0.104-1.155-0.367-1.615-0.761-0.551-0.465-0.946-1.087-1.133-1.783-0.128-0.462-0.159-0.953-0.191-1.436-0.008-0.121-0.016-0.242-0.025-0.361l-0.186-2.393-0.704-9.15zM21.267 11.515l-0.014 0.002c-2.871 0.332-6.139 1.513-7.994 3.838-1.193 1.494-1.844 3.439-1.629 5.353 0.047 0.42 0.143 0.822 0.28 1.222-0.015 0.040-0.034 0.087-0.056 0.142-0.236 0.592-0.783 1.968-0.593 2.375 0.055 0.118 0.167 0.197 0.289 0.235 0.050 0.016 0.101 0.025 0.153 0.031 0.161-0.026 0.309-0.060 0.406-0.203 0.104-0.155 0.21-0.526 0.301-0.844 0.043-0.151 0.083-0.291 0.118-0.389 0.118-0.335 0.252-0.665 0.386-0.994l0.002-0.004c0.016-0.039 0.031-0.077 0.047-0.116 2.367 0.007 4.896-0.734 6.608-2.424 1.915-1.89 2.398-4.938 2.401-7.517 0-0.203-0.014-0.445-0.163-0.6-0.091-0.096-0.229-0.124-0.357-0.122-0.062 0.001-0.123 0.008-0.185 0.014zM15.281 4.034c0.092-0.006 0.184-0.011 0.275-0.010 1.124 0.008 2.250 0.511 3.040 1.303 1.076 1.079 1.296 2.224 1.298 3.689l-8.755 0.004c-0.036-1.259 0.167-2.409 0.993-3.403 0.793-0.955 1.926-1.473 3.148-1.582z"/>
</svg> 